<svg width="26" height="26" viewBox="0 0 512 512" version="1.1" xmlns="http://www.w3.org/2000/svg">
<g id="#ff4b26ff">
<path fill="#ff4b26" opacity="1.00" d=" M 250.25 0.00 L 256.00 0.00 C 255.93 33.43 256.12 66.85 255.93 100.28 C 226.10 99.99 196.35 109.02 171.40 125.30 C 150.78 138.70 133.42 157.04 121.13 178.33 C 120.53 177.95 119.34 177.19 118.74 176.81 C 118.53 176.69 118.12 176.44 117.91 176.31 L 116.92 175.76 C 116.70 175.64 116.25 175.39 116.02 175.27 L 114.82 174.63 C 114.70 174.57 114.46 174.44 114.35 174.38 C 113.69 173.99 112.39 173.21 111.74 172.82 C 111.53 172.69 111.11 172.45 110.91 172.32 L 109.88 171.75 C 109.69 171.64 109.31 171.43 109.11 171.32 C 107.60 170.54 106.14 169.67 104.72 168.76 C 104.56 168.66 104.24 168.48 104.08 168.38 L 102.72 167.63 C 102.61 167.58 102.39 167.46 102.28 167.40 C 100.69 166.58 99.15 165.64 97.63 164.70 C 97.51 164.63 97.26 164.48 97.14 164.41 L 95.69 163.59 C 95.61 163.54 95.43 163.44 95.34 163.39 C 94.69 163.00 93.38 162.22 92.72 161.83 C 92.53 161.72 92.16 161.49 91.97 161.38 L 90.91 160.77 C 90.51 160.57 89.72 160.17 89.32 159.97 L 88.74 159.63 C 88.65 159.58 88.48 159.48 88.39 159.43 C 87.74 159.03 86.45 158.24 85.80 157.85 C 85.60 157.73 85.20 157.49 85.01 157.37 L 83.89 156.74 C 83.72 156.65 83.39 156.47 83.23 156.38 L 81.76 155.58 C 81.67 155.54 81.50 155.44 81.42 155.39 C 80.74 154.99 79.39 154.18 78.72 153.78 C 78.53 153.67 78.16 153.44 77.97 153.33 L 76.82 152.70 C 76.69 152.63 76.43 152.48 76.30 152.41 C 74.71 151.58 73.17 150.67 71.64 149.74 C 71.51 149.67 71.25 149.52 71.12 149.44 C 68.95 148.25 66.77 147.06 64.68 145.72 C 64.33 145.53 63.64 145.14 63.29 144.95 L 62.73 144.63 C 62.64 144.58 62.47 144.48 62.39 144.43 C 61.73 144.04 60.42 143.25 59.76 142.85 C 59.56 142.73 59.15 142.48 58.94 142.36 L 57.94 141.79 C 57.71 141.66 57.25 141.41 57.03 141.28 L 55.83 140.65 C 55.71 140.59 55.49 140.46 55.38 140.40 C 54.73 140.00 53.42 139.21 52.76 138.81 C 52.57 138.70 52.18 138.46 51.99 138.35 L 50.84 137.72 C 50.69 137.64 50.39 137.49 50.25 137.41 C 48.70 136.62 47.21 135.73 45.75 134.79 C 45.56 134.67 45.18 134.45 44.99 134.33 L 43.85 133.71 C 43.71 133.63 43.44 133.49 43.30 133.41 C 41.70 132.57 40.15 131.66 38.62 130.69 C 38.50 130.62 38.26 130.47 38.14 130.40 L 37.25 129.84 C 36.34 129.21 35.44 128.57 34.53 127.93 C 59.94 83.85 98.80 47.68 144.60 25.53 C 177.44 9.53 213.75 0.93 250.25 0.00 Z" />
</g>
<g id="#d93f21ff">
<path fill="#d93f21" opacity="1.00" d=" M 256.00 0.00 L 268.65 0.00 C 289.03 1.43 309.37 4.50 328.94 10.49 C 364.12 20.97 396.94 39.22 424.52 63.42 C 431.03 69.52 431.34 80.68 425.13 87.09 C 409.55 102.85 393.79 118.45 378.15 134.15 C 373.84 138.68 366.96 141.02 360.91 138.97 C 357.56 138.16 354.86 135.93 352.26 133.79 C 330.14 116.28 303.17 104.88 275.13 101.58 C 268.78 100.60 262.33 100.69 255.93 100.28 C 256.12 66.85 255.93 33.43 256.00 0.00 Z" />
<path fill="#d93f21" opacity="1.00" d=" M 38.14 130.40 C 38.26 130.47 38.50 130.62 38.62 130.69 C 38.50 130.62 38.26 130.47 38.14 130.40 Z" />
<path fill="#d93f21" opacity="1.00" d=" M 43.30 133.41 C 43.44 133.49 43.71 133.63 43.85 133.71 C 43.71 133.63 43.44 133.49 43.30 133.41 Z" />
<path fill="#d93f21" opacity="1.00" d=" M 44.99 134.33 C 45.18 134.45 45.56 134.67 45.75 134.79 C 45.56 134.67 45.18 134.45 44.99 134.33 Z" />
<path fill="#d93f21" opacity="1.00" d=" M 50.25 137.41 C 50.39 137.49 50.69 137.64 50.84 137.72 C 50.69 137.64 50.39 137.49 50.25 137.41 Z" />
<path fill="#d93f21" opacity="1.00" d=" M 51.99 138.35 C 52.18 138.46 52.57 138.70 52.76 138.81 C 52.57 138.70 52.18 138.46 51.99 138.35 Z" />
<path fill="#d93f21" opacity="1.00" d=" M 55.38 140.40 C 55.49 140.46 55.71 140.59 55.83 140.65 C 55.71 140.59 55.49 140.46 55.38 140.40 Z" />
<path fill="#d93f21" opacity="1.00" d=" M 57.03 141.28 C 57.25 141.41 57.71 141.66 57.94 141.79 C 57.71 141.66 57.25 141.41 57.03 141.28 Z" />
<path fill="#d93f21" opacity="1.00" d=" M 58.94 142.36 C 59.15 142.48 59.56 142.73 59.76 142.85 C 59.56 142.73 59.15 142.48 58.94 142.36 Z" />
<path fill="#d93f21" opacity="1.00" d=" M 62.39 144.43 C 62.47 144.48 62.64 144.58 62.73 144.63 C 62.64 144.58 62.47 144.48 62.39 144.43 Z" />
<path fill="#d93f21" opacity="1.00" d=" M 63.29 144.95 C 63.64 145.14 64.33 145.53 64.68 145.72 C 64.33 145.53 63.64 145.14 63.29 144.95 Z" />
<path fill="#d93f21" opacity="1.00" d=" M 71.12 149.44 C 71.25 149.52 71.51 149.67 71.64 149.74 C 71.51 149.67 71.25 149.52 71.12 149.44 Z" />
<path fill="#d93f21" opacity="1.00" d=" M 76.30 152.41 C 76.43 152.48 76.69 152.63 76.82 152.70 C 76.69 152.63 76.43 152.48 76.30 152.41 Z" />
<path fill="#d93f21" opacity="1.00" d=" M 77.97 153.33 C 78.16 153.44 78.53 153.67 78.72 153.78 C 78.53 153.67 78.16 153.44 77.97 153.33 Z" />
<path fill="#d93f21" opacity="1.00" d=" M 81.42 155.39 C 81.50 155.44 81.67 155.54 81.76 155.58 C 81.67 155.54 81.50 155.44 81.42 155.39 Z" />
<path fill="#d93f21" opacity="1.00" d=" M 83.23 156.38 C 83.39 156.47 83.72 156.65 83.89 156.74 C 83.72 156.65 83.39 156.47 83.23 156.38 Z" />
<path fill="#d93f21" opacity="1.00" d=" M 85.01 157.37 C 85.20 157.49 85.60 157.73 85.80 157.85 C 85.60 157.73 85.20 157.49 85.01 157.37 Z" />
<path fill="#d93f21" opacity="1.00" d=" M 88.39 159.43 C 88.48 159.48 88.65 159.58 88.74 159.63 C 88.65 159.58 88.48 159.48 88.39 159.43 Z" />
<path fill="#d93f21" opacity="1.00" d=" M 89.32 159.97 C 89.72 160.17 90.51 160.57 90.91 160.77 C 90.51 160.57 89.72 160.17 89.32 159.97 Z" />
<path fill="#d93f21" opacity="1.00" d=" M 91.97 161.38 C 92.16 161.49 92.53 161.72 92.72 161.83 C 92.53 161.72 92.16 161.49 91.97 161.38 Z" />
<path fill="#d93f21" opacity="1.00" d=" M 95.34 163.39 C 95.43 163.44 95.61 163.54 95.69 163.59 C 95.61 163.54 95.43 163.44 95.34 163.39 Z" />
<path fill="#d93f21" opacity="1.00" d=" M 97.14 164.41 C 97.26 164.48 97.51 164.63 97.63 164.70 C 97.51 164.63 97.26 164.48 97.14 164.41 Z" />
<path fill="#d93f21" opacity="1.00" d=" M 102.28 167.40 C 102.39 167.46 102.61 167.58 102.72 167.63 C 102.61 167.58 102.39 167.46 102.28 167.40 Z" />
<path fill="#d93f21" opacity="1.00" d=" M 104.08 168.38 C 104.24 168.48 104.56 168.66 104.72 168.76 C 104.56 168.66 104.24 168.48 104.08 168.38 Z" />
<path fill="#d93f21" opacity="1.00" d=" M 109.11 171.32 C 109.31 171.43 109.69 171.64 109.88 171.75 C 109.69 171.64 109.31 171.43 109.11 171.32 Z" />
<path fill="#d93f21" opacity="1.00" d=" M 110.91 172.32 C 111.11 172.45 111.53 172.69 111.74 172.82 C 111.53 172.69 111.11 172.45 110.91 172.32 Z" />
<path fill="#d93f21" opacity="1.00" d=" M 114.35 174.38 C 114.46 174.44 114.70 174.57 114.82 174.63 C 114.70 174.57 114.46 174.44 114.35 174.38 Z" />
<path fill="#d93f21" opacity="1.00" d=" M 116.02 175.27 C 116.25 175.39 116.70 175.64 116.92 175.76 C 116.70 175.64 116.25 175.39 116.02 175.27 Z" />
<path fill="#d93f21" opacity="1.00" d=" M 117.91 176.31 C 118.12 176.44 118.53 176.69 118.74 176.81 C 118.53 176.69 118.12 176.44 117.91 176.31 Z" />
<path fill="#d93f21" opacity="1.00" d=" M 116.37 336.59 C 116.44 336.55 116.58 336.47 116.64 336.43 C 116.58 336.47 116.44 336.55 116.37 336.59 Z" />
<path fill="#d93f21" opacity="1.00" d=" M 90.39 351.60 C 90.47 351.55 90.63 351.46 90.72 351.41 C 90.63 351.46 90.47 351.55 90.39 351.60 Z" />
<path fill="#d93f21" opacity="1.00" d=" M 71.42 362.55 C 71.47 362.52 71.58 362.46 71.63 362.43 C 71.58 362.46 71.47 362.52 71.42 362.55 Z" />
<path fill="#d93f21" opacity="1.00" d=" M 64.38 366.58 C 64.44 366.55 64.57 366.47 64.63 366.44 C 64.57 366.47 64.44 366.55 64.38 366.58 Z" />
<path fill="#d93f21" opacity="1.00" d=" M 57.37 370.59 C 57.44 370.55 57.57 370.47 57.64 370.43 C 57.57 370.47 57.44 370.55 57.37 370.59 Z" />
</g>
<g id="#ffd500ff">
<path fill="#ffd500" opacity="1.00" d=" M 0.00 252.20 C 0.67 208.82 12.47 165.60 34.44 128.15 C 35.14 128.57 36.55 129.42 37.25 129.84 L 38.14 130.40 C 38.26 130.47 38.50 130.62 38.62 130.69 C 40.15 131.66 41.70 132.57 43.30 133.41 C 43.44 133.49 43.71 133.63 43.85 133.71 L 44.99 134.33 C 45.18 134.45 45.56 134.67 45.75 134.79 C 47.21 135.73 48.70 136.62 50.25 137.41 C 50.39 137.49 50.69 137.64 50.84 137.72 L 51.99 138.35 C 52.18 138.46 52.57 138.70 52.76 138.81 C 53.42 139.21 54.73 140.00 55.38 140.40 C 55.49 140.46 55.71 140.59 55.83 140.65 L 57.03 141.28 C 57.25 141.41 57.71 141.66 57.94 141.79 L 58.94 142.36 C 59.15 142.48 59.56 142.73 59.76 142.85 C 60.42 143.25 61.73 144.04 62.39 144.43 C 62.47 144.48 62.64 144.58 62.73 144.63 L 63.29 144.95 C 63.64 145.14 64.33 145.53 64.68 145.72 C 66.77 147.06 68.95 148.25 71.12 149.44 C 71.25 149.52 71.51 149.67 71.64 149.74 C 73.17 150.67 74.71 151.58 76.30 152.41 C 76.43 152.48 76.69 152.63 76.82 152.70 L 77.97 153.33 C 78.16 153.44 78.53 153.67 78.72 153.78 C 79.39 154.18 80.74 154.99 81.42 155.39 C 81.50 155.44 81.67 155.54 81.76 155.58 L 83.23 156.38 C 83.39 156.47 83.72 156.65 83.89 156.74 L 85.01 157.37 C 85.20 157.49 85.60 157.73 85.80 157.85 C 86.45 158.24 87.74 159.03 88.39 159.43 C 88.48 159.48 88.65 159.58 88.74 159.63 L 89.32 159.97 C 89.72 160.17 90.51 160.57 90.91 160.77 L 91.97 161.38 C 92.16 161.49 92.53 161.72 92.72 161.83 C 93.38 162.22 94.69 163.00 95.34 163.39 C 95.43 163.44 95.61 163.54 95.69 163.59 L 97.14 164.41 C 97.26 164.48 97.51 164.63 97.63 164.70 C 99.15 165.64 100.69 166.58 102.28 167.40 C 102.39 167.46 102.61 167.58 102.72 167.63 L 104.08 168.38 C 104.24 168.48 104.56 168.66 104.72 168.76 C 106.14 169.67 107.60 170.54 109.11 171.32 C 109.31 171.43 109.69 171.64 109.88 171.75 L 110.91 172.32 C 111.11 172.45 111.53 172.69 111.74 172.82 C 112.39 173.21 113.69 173.99 114.35 174.38 C 114.46 174.44 114.70 174.57 114.82 174.63 L 116.02 175.27 C 116.25 175.39 116.70 175.64 116.92 175.76 L 117.91 176.31 C 118.12 176.44 118.53 176.69 118.74 176.81 C 119.34 177.19 120.53 177.95 121.13 178.33 C 107.83 201.21 100.47 227.52 100.20 253.99 C 99.76 281.87 107.20 309.75 121.22 333.83 C 120.89 334.01 120.25 334.38 119.93 334.57 C 118.83 335.18 117.74 335.80 116.64 336.43 C 116.58 336.47 116.44 336.55 116.37 336.59 C 115.67 337.02 114.28 337.87 113.58 338.29 C 113.48 338.35 113.28 338.46 113.19 338.52 L 111.68 339.37 C 111.58 339.43 111.38 339.54 111.27 339.60 C 107.37 341.80 103.51 344.06 99.63 346.30 C 99.53 346.36 99.34 346.47 99.24 346.52 C 98.28 347.09 97.33 347.66 96.38 348.25 C 95.35 348.49 94.50 349.01 93.81 349.81 C 92.76 350.31 91.73 350.85 90.72 351.41 C 90.63 351.46 90.47 351.55 90.39 351.60 C 89.68 352.02 88.26 352.85 87.55 353.27 C 87.45 353.32 87.27 353.43 87.17 353.49 C 82.64 356.06 78.15 358.70 73.63 361.30 C 73.52 361.36 73.29 361.49 73.18 361.56 L 71.63 362.43 C 71.58 362.46 71.47 362.52 71.42 362.55 C 70.70 362.97 69.26 363.81 68.55 364.23 C 68.45 364.28 68.26 364.39 68.17 364.44 C 66.99 365.10 65.81 365.77 64.63 366.44 C 64.57 366.47 64.44 366.55 64.38 366.58 C 63.67 367.01 62.25 367.85 61.54 368.27 C 61.45 368.32 61.27 368.43 61.18 368.48 C 60.00 369.12 58.82 369.78 57.64 370.43 C 57.57 370.47 57.44 370.55 57.37 370.59 C 56.68 371.01 55.30 371.85 54.60 372.27 C 54.52 372.32 54.34 372.42 54.26 372.47 C 52.04 373.74 49.82 374.99 47.61 376.29 C 47.52 376.34 47.34 376.44 47.25 376.49 C 45.04 377.76 42.84 379.03 40.64 380.31 C 40.55 380.36 40.38 380.46 40.29 380.51 C 39.27 381.08 38.25 381.68 37.24 382.28 C 36.55 382.68 35.17 383.49 34.48 383.89 C 12.47 346.45 0.68 303.20 0.00 259.80 L 0.00 252.20 Z" />
</g>
<g id="#167ee6ff">
<path fill="#167ee6" opacity="1.00" d=" M 267.16 227.92 C 267.03 219.06 275.05 211.23 283.89 211.48 C 351.93 211.44 419.98 211.49 488.02 211.46 C 491.03 211.48 494.10 211.32 497.04 212.11 C 502.77 213.62 507.45 218.43 508.83 224.19 C 510.97 234.37 511.77 244.79 512.00 255.18 L 512.00 262.81 C 511.17 303.57 500.71 344.20 480.84 379.86 C 461.74 414.48 434.16 444.24 401.54 466.51 C 395.97 470.45 390.07 473.86 384.32 477.51 C 367.47 448.58 350.85 419.53 334.03 390.60 C 364.64 373.00 388.72 344.53 401.41 311.61 C 362.27 311.57 323.13 311.63 283.98 311.58 C 275.06 311.88 266.96 303.95 267.15 295.01 C 267.12 272.65 267.12 250.28 267.16 227.92 Z" />
</g>
<g id="#12b347ff">
<path fill="#12b347" opacity="1.00" d=" M 116.64 336.43 C 117.74 335.80 118.83 335.18 119.93 334.57 C 120.37 334.56 121.25 334.55 121.69 334.55 C 134.22 356.11 152.11 374.48 173.16 387.82 C 197.75 403.38 226.80 411.97 255.93 411.73 C 256.08 445.15 255.94 478.58 256.00 512.00 L 254.21 512.00 C 221.96 511.73 189.76 505.44 159.89 493.25 C 107.56 472.09 62.70 433.02 34.58 384.08 C 35.46 383.47 36.35 382.87 37.24 382.28 C 38.25 381.68 39.27 381.08 40.29 380.51 C 40.38 380.46 40.55 380.36 40.64 380.31 C 42.84 379.03 45.04 377.76 47.25 376.49 C 47.34 376.44 47.52 376.34 47.61 376.29 C 49.82 374.99 52.04 373.74 54.26 372.47 C 54.34 372.42 54.52 372.32 54.60 372.27 C 55.30 371.85 56.68 371.01 57.37 370.59 C 57.44 370.55 57.57 370.47 57.64 370.43 C 58.82 369.78 60.00 369.12 61.18 368.48 C 61.27 368.43 61.45 368.32 61.54 368.27 C 62.25 367.85 63.67 367.01 64.38 366.58 C 64.44 366.55 64.57 366.47 64.63 366.44 C 65.81 365.77 66.99 365.10 68.17 364.44 C 68.26 364.39 68.45 364.28 68.55 364.23 C 69.26 363.81 70.70 362.97 71.42 362.55 C 71.47 362.52 71.58 362.46 71.63 362.43 L 73.18 361.56 C 73.29 361.49 73.52 361.36 73.63 361.30 C 78.15 358.70 82.64 356.06 87.17 353.49 C 87.27 353.43 87.45 353.32 87.55 353.27 C 88.26 352.85 89.68 352.02 90.39 351.60 C 90.47 351.55 90.63 351.46 90.72 351.41 C 91.73 350.85 92.76 350.31 93.81 349.81 C 95.52 350.57 96.38 350.06 96.38 348.25 C 97.33 347.66 98.28 347.09 99.24 346.52 C 99.34 346.47 99.53 346.36 99.63 346.30 C 103.51 344.06 107.37 341.80 111.27 339.60 C 111.38 339.54 111.58 339.43 111.68 339.37 L 113.19 338.52 C 113.28 338.46 113.48 338.35 113.58 338.29 C 114.28 337.87 115.67 337.02 116.37 336.59 C 116.44 336.55 116.58 336.47 116.64 336.43 Z" />
</g>
<g id="#0f993eff">
<path fill="#0f993e" opacity="1.00" d=" M 113.19 338.52 C 113.28 338.46 113.48 338.35 113.58 338.29 C 113.48 338.35 113.28 338.46 113.19 338.52 Z" />
<path fill="#0f993e" opacity="1.00" d=" M 111.27 339.60 C 111.38 339.54 111.58 339.43 111.68 339.37 C 111.58 339.43 111.38 339.54 111.27 339.60 Z" />
<path fill="#0f993e" opacity="1.00" d=" M 99.24 346.52 C 99.34 346.47 99.53 346.36 99.63 346.30 C 99.53 346.36 99.34 346.47 99.24 346.52 Z" />
<path fill="#0f993e" opacity="1.00" d=" M 93.81 349.81 C 94.50 349.01 95.35 348.49 96.38 348.25 C 96.38 350.06 95.52 350.57 93.81 349.81 Z" />
<path fill="#0f993e" opacity="1.00" d=" M 87.17 353.49 C 87.27 353.43 87.45 353.32 87.55 353.27 C 87.45 353.32 87.27 353.43 87.17 353.49 Z" />
<path fill="#0f993e" opacity="1.00" d=" M 73.18 361.56 C 73.29 361.49 73.52 361.36 73.63 361.30 C 73.52 361.36 73.29 361.49 73.18 361.56 Z" />
<path fill="#0f993e" opacity="1.00" d=" M 68.17 364.44 C 68.26 364.39 68.45 364.28 68.55 364.23 C 68.45 364.28 68.26 364.39 68.17 364.44 Z" />
<path fill="#0f993e" opacity="1.00" d=" M 61.18 368.48 C 61.27 368.43 61.45 368.32 61.54 368.27 C 61.45 368.32 61.27 368.43 61.18 368.48 Z" />
<path fill="#0f993e" opacity="1.00" d=" M 54.26 372.47 C 54.34 372.42 54.52 372.32 54.60 372.27 C 54.52 372.32 54.34 372.42 54.26 372.47 Z" />
<path fill="#0f993e" opacity="1.00" d=" M 47.25 376.49 C 47.34 376.44 47.52 376.34 47.61 376.29 C 47.52 376.34 47.34 376.44 47.25 376.49 Z" />
<path fill="#0f993e" opacity="1.00" d=" M 40.29 380.51 C 40.38 380.46 40.55 380.36 40.64 380.31 C 40.55 380.36 40.38 380.46 40.29 380.51 Z" />
<path fill="#0f993e" opacity="1.00" d=" M 268.97 411.09 C 291.85 409.27 314.11 401.91 334.03 390.60 C 350.85 419.53 367.47 448.58 384.32 477.51 C 349.43 498.37 309.19 509.57 268.73 512.00 L 256.00 512.00 C 255.94 478.58 256.08 445.15 255.93 411.73 C 260.28 411.56 264.62 411.29 268.97 411.09 Z" />
</g>
</svg>
